{"title":"Grace.of.Monaco.2014.1080p.BluRay.H264.AAC.MP4.Raven","uid":11120942,"size":1605465233,"categoryP":"video","categoryS":"hd___movies","magnet":"?xt=urn:btih:899ff8584e409b9b2f35a388de6ed13a19b146da&amp;dn=Grace.of.Monaco.2014.1080p.BluRay.H264.AAC.MP4.Raven&amp;tr=udp%3A%2F%2Ftracker.openbittorrent.com%3A80&amp;tr=udp%3A%2F%2Fopen.demonii.com%3A1337&amp;tr=udp%3A%2F%2Ftracker.coppersurfer.tk%3A6969&amp;tr=udp%3A%2F%2Fexodus.desync.com%3A6969","seeders":0,"leechers":0,"uploader":"Raven1969","files":-1,"time":1411913825,"description":"Grace.of.Monaco.2014.1080p.BluRay.H264.AAC.MP4.Raven.\n\n\n\n\nGerman, Spanish, Danish and  Indonesian subs included.\n\n\n\nScreen images:\n\n\n &lt;a href=&quot;\nhttp://i.imgur.com/uPQBNGU.png&quot; rel=&quot;nofollow&quot; target=&quot;_NEW&quot;&gt;\nhttp://i.imgur.com/uPQBNGU.png&lt;/a&gt;\n\n\n &lt;a href=&quot;\nhttp://i.imgur.com/cjQOWlX.png&quot; rel=&quot;nofollow&quot; target=&quot;_NEW&quot;&gt;\nhttp://i.imgur.com/cjQOWlX.png&lt;/a&gt;\n\n\n &lt;a href=&quot;\nhttp://i.imgur.com/MXuc9qa.png&quot; rel=&quot;nofollow&quot; target=&quot;_NEW&quot;&gt;\nhttp://i.imgur.com/MXuc9qa.png&lt;/a&gt;\n\n\n &lt;a href=&quot;\nhttp://i.imgur.com/ZZLToHQ.png&quot; rel=&quot;nofollow&quot; target=&quot;_NEW&quot;&gt;\nhttp://i.imgur.com/ZZLToHQ.png&lt;/a&gt;\n\n\n\n\n\n\n\nIMDB:\n\n\n\n &lt;a href=&quot;\nhttp://www.imdb.com/title/tt2095649&quot; rel=&quot;nofollow&quot; target=&quot;_NEW&quot;&gt;\nhttp://www.imdb.com/title/tt2095649&lt;/a&gt;\n\n\n\n\nIMDB Rating:  5.6\n\n\n\n\nStoryline:\n\nThe story of former Hollywood star Grace Kelly's crisis of marriage and identity, during a political dispute between Monaco's Prince Rainier III and France's Charles De Gaulle, and a looming French invasion of Monaco in the early 1960s.\n\n\n\nGeneral\nFormat                                   : MPEG-4\nFormat profile                           : Base Media\nCodec ID                                 : isom\nFile size                                : 1.49 GiB\nDuration                                 : 1h 42mn\nOverall bit rate mode                    : Variable\nOverall bit rate                         : 2 078 Kbps\nEncoded date                             : UTC 2014-09-28 09:21:31\nTagged date                              : UTC 2014-09-28 09:21:31\nWriting application                      : My MP4Box GUI 0.6.0.6 &lt;http://my-mp4box-gui.zymichost.com&gt;\n\nVideo\nID                                       : 1\nFormat                                   : AVC\nFormat/Info                              : Advanced Video Codec\nFormat profile                           : &lt;a class=&quot;__cf_email__&quot; href=&quot;/cdn-cgi/l/email-protection&quot; data-cfemail=&quot;0b43626c634b473f253b&quot;&gt;[email&amp;#160;protected]&lt;/a&gt;&lt;script data-cfhash='f9e31' type=&quot;text/javascript&quot;&gt;\n/* &lt;![CDATA[ */!function(){try{var t=&quot;currentScript&quot;in document?document.currentScript:function(){for(var t=document.getElementsByTagName(&quot;script&quot;),e=t.length;e--;)if(t[e].getAttribute(&quot;data-cfhash&quot;))return t[e]}();if(t&amp;&amp;t.previousSibling){var e,r,n,i,c=t.previousSibling,a=c.getAttribute(&quot;data-cfemail&quot;);if(a){for(e=&quot;&quot;,r=parseInt(a.substr(0,2),16),n=2;a.length-n;n+=2)i=parseInt(a.substr(n,2),16)^r,e+=String.fromCharCode(i);e=document.createTextNode(e),c.parentNode.replaceChild(e,c)}t.parentNode.removeChild(t);}}catch(u){}}()/* ]]&gt; */&lt;/script&gt;\nFormat settings, CABAC                   : Yes\nFormat settings, ReFrames                : 6 frames\nCodec ID                                 : avc1\nCodec ID/Info                            : Advanced Video Coding\nDuration                                 : 1h 42mn\nBit rate                                 : 2 000 Kbps\nMaximum bit rate                         : 20.8 Mbps\nWidth                                    : 1 920 pixels\nHeight                                   : 800 pixels\nDisplay aspect ratio                     : 2.40:1\nFrame rate mode                          : Constant\nFrame rate                               : 24.000 fps\nColor space                              : YUV\nChroma subsampling                       : 4:2:0\nBit depth                                : 8 bits\nScan type                                : Progressive\nBits/(Pixel*Frame)                       : 0.054\nStream size                              : 1.42 GiB (95%)\nWriting library                          : x264 core 128\nLanguage                                 : English\nEncoded date                             : UTC 2014-09-28 08:52:34\nTagged date                              : UTC 2014-09-28 09:23:31\n\nAudio\nID                                       : 3\nFormat                                   : AAC\nFormat/Info                              : Advanced Audio Codec\nFormat profile                           : LC\nCodec ID                                 : 40\nDuration                                 : 1h 42mn\nBit rate mode                            : Variable\nBit rate                                 : 93.4 Kbps\nMaximum bit rate                         : 101 Kbps\nChannel(s)                               : 2 channels\nChannel positions                        : Front: L R\nSampling rate                            : 48.0 KHz\nCompression mode                         : Lossy\nStream size                              : 68.6 MiB (4%)\nTitle                                    : Audio AAC LC 96kb.aac\nEncoded date                             : UTC 2014-09-28 09:23:02\nTagged date                              : UTC 2014-09-28 09:23:31\n\nMenu\nID                                       : 2\nCodec ID                                 : text\nDuration                                 : 1h 39mn\nEncoded date                             : UTC 2014-09-28 08:54:11\nTagged date                              : UTC 2014-09-28 09:23:31\nBit rate mode                            : CBR\n\n\nPLEASE  SEED FOR AS LONG AS POSSIBLE TO KEEP THE TORRENT ALIVE :-)","torrent":{"xt":"urn:btih:899ff8584e409b9b2f35a388de6ed13a19b146da","amp;dn":"Grace.of.Monaco.2014.1080p.BluRay.H264.AAC.MP4.Raven","amp;tr":["udp%3A%2F%2Ftracker.openbittorrent.com%3A80","udp%3A%2F%2Fopen.demonii.com%3A1337","udp%3A%2F%2Ftracker.coppersurfer.tk%3A6969","udp%3A%2F%2Fexodus.desync.com%3A6969"],"infoHash":"899ff8584e409b9b2f35a388de6ed13a19b146da","infoHashBuffer":{"type":"Buffer","data":[137,159,248,88,78,64,155,155,47,53,163,136,222,110,209,58,25,177,70,218]},"announce":[],"urlList":[]}}